<?xml version="1.0" encoding="UTF-8"?>
<svg xmlns="http://www.w3.org/2000/svg" xmlns:xlink="http://www.w3.org/1999/xlink" width="50px" height="57px" viewBox="0 0 50 57" version="1.1">
<g id="surface1">
<path style=" stroke:none;fill-rule:nonzero;fill:rgb(91.372549%,79.215686%,19.607843%);fill-opacity:1;" d="M 4.1875 51.027344 L 0 0.09375 L 50 0.199219 L 45.574219 51.027344 L 25.1875 56.90625 Z M 4.1875 51.027344 "/>
<path style=" stroke:none;fill-rule:nonzero;fill:rgb(100%,87.058824%,14.509804%);fill-opacity:1;" d="M 25.1875 51.984375 L 25.1875 4.945312 L 45.777344 5.015625 L 42.105469 47.101562 Z M 25.1875 51.984375 "/>
<path style=" stroke:none;fill-rule:nonzero;fill:rgb(100%,100%,100%);fill-opacity:1;" d="M 22.984375 10.53125 L 17.539062 10.53125 L 17.539062 41.839844 L 13.304688 41.035156 L 13.304688 36.824219 L 8.265625 36.019531 L 8.265625 45.453125 L 22.984375 49.265625 Z M 27.066406 10.53125 L 42.136719 10.53125 L 41.128906 16.53125 L 32.820312 16.53125 L 32.820312 26.378906 L 41.128906 26.378906 L 40.121094 46.253906 L 27.066406 49.265625 L 27.066406 43.042969 L 35.886719 40.035156 L 36.394531 31.804688 L 27.066406 33.148438 Z M 27.066406 10.53125 "/>
</g>
</svg>
