<?xml version="1.0" encoding="UTF-8"?>
<svg xmlns="http://www.w3.org/2000/svg" xmlns:xlink="http://www.w3.org/1999/xlink" width="50px" height="50px" viewBox="0 0 50 50" version="1.1">
<g id="surface1">
<path style="fill:none;stroke-width:24;stroke-linecap:butt;stroke-linejoin:miter;stroke:rgb(91.37255%,11.764706%,38.82353%);stroke-opacity:1;stroke-miterlimit:10;" d="M 372 227.625 C 419.625 275.25 457.03125 326.34375 478.921875 371.203125 C 505.265625 425.203125 509.015625 470.90625 489.984375 489.890625 C 470.203125 509.71875 421.734375 505.78125 364.265625 476.90625 C 320.8125 455.109375 272.25 417.796875 227.015625 372.609375 C 180.65625 326.25 142.078125 277.03125 120.375 232.78125 C 92.90625 176.765625 90.328125 129.046875 109.734375 109.640625 C 128.578125 90.796875 172.96875 93.5625 226.40625 119.390625 C 271.59375 141.1875 323.90625 179.53125 372 227.625 Z M 372 227.625 " transform="matrix(0.0833333,0,0,0.0833333,0,0)"/>
<path style="fill:none;stroke-width:24;stroke-linecap:butt;stroke-linejoin:miter;stroke:rgb(91.37255%,11.764706%,38.82353%);stroke-opacity:1;stroke-miterlimit:10;" d="M 272.953125 201.140625 C 337.96875 183.65625 400.921875 176.765625 450.703125 180.234375 C 510.65625 184.40625 552.140625 203.953125 559.078125 229.921875 C 566.34375 256.921875 538.734375 297 485.015625 332.34375 C 444.421875 359.0625 387.84375 382.546875 326.109375 399.09375 C 262.78125 416.109375 200.859375 424.96875 151.6875 421.6875 C 89.4375 417.46875 46.78125 395.859375 39.65625 369.375 C 32.765625 343.640625 57.375 306.5625 106.40625 273.140625 C 147.890625 244.921875 207.234375 218.765625 272.953125 201.140625 Z M 272.953125 201.140625 " transform="matrix(0.0833333,0,0,0.0833333,0,0)"/>
<path style="fill:none;stroke-width:24;stroke-linecap:butt;stroke-linejoin:miter;stroke:rgb(91.37255%,11.764706%,38.82353%);stroke-opacity:1;stroke-miterlimit:10;" d="M 200.484375 273.703125 C 217.828125 208.640625 243.28125 150.65625 271.125 109.265625 C 304.6875 59.390625 342.375 33.234375 368.296875 40.171875 C 395.34375 47.390625 416.25 91.3125 420.09375 155.484375 C 422.953125 204 415.03125 264.75 398.53125 326.53125 C 381.65625 389.859375 358.40625 447.9375 330.984375 488.90625 C 296.25 540.75 256.265625 566.90625 229.734375 559.828125 C 204 552.9375 184.171875 513.140625 179.71875 453.9375 C 175.96875 403.921875 182.953125 339.421875 200.484375 273.703125 Z M 200.484375 273.703125 " transform="matrix(0.0833333,0,0,0.0833333,0,0)"/>
<path style=" stroke:none;fill-rule:nonzero;fill:rgb(91.37255%,11.764706%,38.82353%);fill-opacity:1;" d="M 25 29.113281 C 24.914062 29.113281 24.84375 29.085938 24.785156 29.027344 L 21.726562 26.078125 C 21.695312 26.050781 21.648438 26.007812 21.59375 25.949219 C 21.535156 25.890625 21.445312 25.785156 21.320312 25.628906 C 21.195312 25.472656 21.085938 25.316406 20.988281 25.152344 C 20.890625 24.988281 20.804688 24.789062 20.726562 24.558594 C 20.648438 24.328125 20.609375 24.101562 20.609375 23.882812 C 20.609375 23.164062 20.820312 22.601562 21.234375 22.199219 C 21.648438 21.792969 22.222656 21.589844 22.953125 21.589844 C 23.15625 21.589844 23.363281 21.625 23.570312 21.695312 C 23.78125 21.765625 23.980469 21.859375 24.160156 21.980469 C 24.339844 22.097656 24.496094 22.210938 24.628906 22.316406 C 24.757812 22.417969 24.882812 22.53125 25 22.648438 C 25.117188 22.53125 25.242188 22.417969 25.371094 22.316406 C 25.503906 22.210938 25.660156 22.097656 25.839844 21.980469 C 26.019531 21.859375 26.21875 21.765625 26.429688 21.695312 C 26.636719 21.625 26.84375 21.589844 27.046875 21.589844 C 27.777344 21.589844 28.351562 21.792969 28.765625 22.199219 C 29.179688 22.601562 29.390625 23.164062 29.390625 23.882812 C 29.390625 24.605469 29.015625 25.339844 28.265625 26.085938 L 25.214844 29.027344 C 25.15625 29.085938 25.085938 29.113281 25 29.113281 Z M 25 29.113281 "/>
</g>
</svg>
